<svg width="540" height="222" fill="none" xmlns="http://www.w3.org/2000/svg"><path d="M0 52a2 2 0 0 1 2-2h536a2 2 0 1 1 0 4H2a2 2 0 0 1-2-2Z" fill="#EBEBEB"/><path d="M0 52a2 2 0 0 1 2-2h455a2 2 0 1 1 0 4H2a2 2 0 0 1-2-2Z" fill="#0057FF"/><path d="M497.695 34.18c-.973 0-1.753-.193-2.34-.58-.586-.387-1.013-.933-1.28-1.64-.253-.72-.38-1.56-.38-2.52 0-.547.047-1.027.14-1.44.094-.413.227-.773.4-1.08.187-.32.4-.593.64-.82.254-.24.527-.453.82-.64a4.236 4.236 0 0 1-1.3-1.4c-.333-.587-.5-1.327-.5-2.22 0-.853.134-1.593.4-2.22a2.988 2.988 0 0 1 1.24-1.44c.574-.347 1.294-.52 2.16-.52.867 0 1.574.173 2.12.52.56.333.974.813 1.24 1.44.267.627.4 1.367.4 2.22 0 .907-.166 1.647-.5 2.22a3.964 3.964 0 0 1-1.3 1.4c.294.187.56.4.8.64.254.227.467.5.64.82.187.307.327.667.42 1.08.107.413.16.893.16 1.44 0 .96-.133 1.8-.4 2.52-.253.707-.673 1.253-1.26 1.64-.573.387-1.346.58-2.32.58Zm0-1.7c.52 0 .92-.133 1.2-.4.28-.267.467-.627.56-1.08.107-.453.16-.96.16-1.52 0-.507-.06-.98-.18-1.42-.106-.453-.3-.82-.58-1.1-.28-.293-.666-.44-1.16-.44-.493 0-.886.14-1.18.42-.28.28-.48.647-.6 1.1-.12.44-.18.92-.18 1.44 0 .56.054 1.067.16 1.52.107.453.3.813.58 1.08.294.267.7.4 1.22.4Zm0-8c.454-.013.794-.153 1.02-.42.24-.267.407-.607.5-1.02.094-.427.14-.867.14-1.32 0-.667-.12-1.233-.36-1.7-.24-.467-.673-.7-1.3-.7-.626 0-1.066.233-1.32.7-.253.467-.38 1.033-.38 1.7 0 .453.047.893.14 1.32.094.413.26.753.5 1.02.254.267.607.407 1.06.42Zm9.841 9.68c-.974 0-1.747-.187-2.32-.56-.574-.373-.987-.913-1.24-1.62-.24-.707-.36-1.547-.36-2.52h2.14c0 .48.04.953.12 1.42.08.453.246.833.5 1.14.266.293.666.44 1.2.44.586 0 1.006-.167 1.26-.5.253-.347.413-.807.48-1.38.066-.587.1-1.247.1-1.98 0-.733-.04-1.353-.12-1.86-.08-.52-.247-.913-.5-1.18-.254-.28-.654-.42-1.2-.42a1.6 1.6 0 0 0-1.12.42 2.497 2.497 0 0 0-.68.92h-1.82V17.8h6.98v2.14h-5.04l-.14 4.48c.266-.28.593-.5.98-.66.4-.16.853-.24 1.36-.24.88 0 1.566.207 2.06.62.506.413.86.98 1.06 1.7.213.72.32 1.547.32 2.48 0 .827-.06 1.6-.18 2.32-.12.707-.334 1.327-.64 1.86-.294.52-.7.927-1.22 1.22-.52.293-1.18.44-1.98.44Zm10.432-.16 4.46-16.22h1.84L519.828 34h-1.86Zm-1.92-7.6c-1.107 0-1.907-.34-2.4-1.02-.494-.68-.74-1.593-.74-2.74v-1.26c0-1.187.24-2.1.72-2.74.48-.64 1.286-.96 2.42-.96 1.133 0 1.94.307 2.42.92s.72 1.507.72 2.68v1.42c0 1.16-.247 2.067-.74 2.72-.48.653-1.28.98-2.4.98Zm0-1.62c.346 0 .6-.093.76-.28.173-.2.286-.46.34-.78.066-.32.1-.66.1-1.02v-1.42c0-.547-.074-1.013-.22-1.4-.134-.387-.46-.58-.98-.58s-.847.2-.98.6c-.134.387-.2.853-.2 1.4v1.42c0 .36.026.7.08 1.02.066.307.18.56.34.76.173.187.426.28.76.28Zm10.1 9.32c-1.107 0-1.907-.333-2.4-1-.48-.68-.72-1.6-.72-2.76v-1.26c0-1.173.233-2.08.7-2.72.48-.653 1.286-.98 2.42-.98 1.146 0 1.953.313 2.42.94.48.613.72 1.507.72 2.68v1.4c0 1.173-.247 2.087-.74 2.74-.48.64-1.28.96-2.4.96Zm0-1.62c.346 0 .606-.093.78-.28.173-.2.286-.46.34-.78.053-.32.08-.653.08-1v-1.44c0-.547-.074-1.013-.22-1.4-.134-.387-.46-.58-.98-.58s-.847.2-.98.6c-.134.387-.2.853-.2 1.4v1.42c0 .36.026.7.08 1.02.066.307.18.56.34.76.173.187.426.28.76.28ZM11.197 34V18.61h3.097c1.026 0 1.875.14 2.546.418.671.266 1.165.703 1.482 1.311.33.595.494 1.38.494 2.356 0 .595-.063 1.14-.19 1.634-.127.481-.33.893-.608 1.235-.279.33-.646.57-1.102.722L19.101 34H17.03l-2.014-7.22h-1.672V34h-2.147Zm2.147-8.759h.817c.608 0 1.102-.076 1.482-.228.38-.152.659-.412.836-.779.177-.367.266-.88.266-1.539 0-.9-.165-1.545-.494-1.938-.33-.405-.982-.608-1.957-.608h-.95v5.092ZM21.049 34V18.61h5.966v1.596h-3.819v5.092h3.098v1.52h-3.098v5.643h3.857V34H21.05Zm11.367.171c-.887 0-1.628-.19-2.223-.57a3.614 3.614 0 0 1-1.33-1.577c-.304-.671-.482-1.45-.532-2.337l1.9-.513c.038.545.12 1.07.247 1.577.14.507.36.925.665 1.254.304.317.728.475 1.273.475.557 0 .975-.152 1.254-.456.291-.317.437-.766.437-1.349 0-.697-.158-1.254-.475-1.672a8.557 8.557 0 0 0-1.197-1.292l-2.584-2.28c-.507-.443-.88-.925-1.121-1.444-.24-.532-.361-1.184-.361-1.957 0-1.127.323-2.001.969-2.622.646-.62 1.526-.931 2.64-.931.609 0 1.14.082 1.597.247a2.66 2.66 0 0 1 1.159.722c.316.33.563.747.74 1.254.19.494.318 1.077.38 1.748l-1.823.494a7.373 7.373 0 0 0-.228-1.387c-.114-.43-.317-.773-.608-1.026-.279-.266-.684-.399-1.216-.399-.532 0-.95.146-1.254.437-.292.279-.437.697-.437 1.254 0 .469.076.855.228 1.159.165.304.424.614.779.931l2.603 2.28a8.045 8.045 0 0 1 1.539 1.824c.443.697.665 1.526.665 2.489 0 .76-.158 1.419-.475 1.976a3.204 3.204 0 0 1-1.311 1.254c-.545.291-1.178.437-1.9.437ZM37.767 34V18.61h5.966v1.596h-3.819v5.092h3.097v1.52h-3.097v5.643h3.857V34h-6.004Zm6.902 0 3.268-15.39h2.07L53.296 34h-2.033l-.703-3.876h-3.135L46.683 34h-2.014Zm3.04-5.415h2.565l-1.292-6.935-1.273 6.935ZM54.856 34V18.61h3.097c1.026 0 1.875.14 2.546.418.671.266 1.165.703 1.482 1.311.33.595.494 1.38.494 2.356 0 .595-.063 1.14-.19 1.634-.127.481-.33.893-.608 1.235-.279.33-.646.57-1.102.722L62.76 34h-2.07l-2.015-7.22h-1.672V34h-2.147Zm2.147-8.759h.817c.608 0 1.102-.076 1.482-.228.38-.152.659-.412.836-.779.178-.367.266-.88.266-1.539 0-.9-.165-1.545-.494-1.938-.33-.405-.981-.608-1.957-.608h-.95v5.092Zm11.563 8.93c-1.09 0-1.938-.228-2.546-.684-.596-.456-1.014-1.07-1.254-1.843-.228-.773-.342-1.634-.342-2.584v-5.434c0-1.039.114-1.944.342-2.717.24-.773.658-1.368 1.254-1.786.608-.43 1.456-.646 2.546-.646.962 0 1.722.177 2.28.532.57.355.975.861 1.216 1.52.253.659.38 1.45.38 2.375v1.216h-2.033v-1.083c0-.57-.032-1.07-.095-1.501-.05-.443-.203-.785-.456-1.026-.254-.24-.678-.361-1.273-.361-.608 0-1.052.133-1.33.399-.279.253-.463.62-.551 1.102-.076.469-.114 1.02-.114 1.653v6.099c0 .773.063 1.387.19 1.843.126.443.335.76.627.95.291.19.684.285 1.178.285.582 0 1-.127 1.254-.38.253-.266.411-.627.475-1.083.063-.456.095-.988.095-1.596v-1.14h2.033v1.14c0 .937-.114 1.767-.342 2.489-.228.71-.62 1.267-1.178 1.672-.558.393-1.343.589-2.356.589ZM74.487 34V18.61h2.147v6.65h3.952v-6.65h2.147V34h-2.147v-7.201h-3.952V34h-2.147Z" fill="#000"/><path d="M0 126a2 2 0 0 1 2-2h536a2 2 0 1 1 0 4H2a2 2 0 0 1-2-2Z" fill="#EBEBEB"/><path d="M0 126a2 2 0 0 1 2-2h347a2 2 0 1 1 0 4H2a2 2 0 0 1-2-2Z" fill="#B861FF"/><path d="M497.757 108.18c-.933 0-1.693-.233-2.28-.7-.586-.48-1.02-1.12-1.3-1.92-.266-.813-.4-1.713-.4-2.7V97.4c0-1.053.12-2.013.36-2.88s.647-1.56 1.22-2.08c.587-.52 1.387-.78 2.4-.78.84 0 1.547.153 2.12.46a3.092 3.092 0 0 1 1.34 1.34c.32.587.487 1.3.5 2.14v.12c.014.04.02.08.02.12h-2.16c0-.787-.126-1.387-.38-1.8-.253-.413-.733-.62-1.44-.62-.386 0-.72.127-1 .38-.28.24-.493.613-.64 1.12-.133.507-.2 1.16-.2 1.96v2.46c.214-.333.514-.6.9-.8.4-.213.887-.32 1.46-.32.894 0 1.594.193 2.1.58.507.387.867.933 1.08 1.64.214.693.32 1.513.32 2.46 0 .973-.133 1.86-.4 2.66-.266.8-.693 1.44-1.28 1.92-.586.467-1.366.7-2.34.7Zm0-1.78c.48 0 .854-.133 1.12-.4.267-.28.454-.647.56-1.1.12-.453.18-.947.18-1.48 0-.64-.033-1.233-.1-1.78-.053-.547-.206-.98-.46-1.3-.253-.333-.686-.5-1.3-.5-.293 0-.56.053-.8.16-.24.107-.446.247-.62.42-.173.16-.313.333-.42.52v2.42c0 .547.054 1.053.16 1.52.12.467.314.84.58 1.12.267.267.634.4 1.1.4Zm9.779 1.76c-.974 0-1.747-.187-2.32-.56-.574-.373-.987-.913-1.24-1.62-.24-.707-.36-1.547-.36-2.52h2.14c0 .48.04.953.12 1.42.08.453.246.833.5 1.14.266.293.666.44 1.2.44.586 0 1.006-.167 1.26-.5.253-.347.413-.807.48-1.38.066-.587.1-1.247.1-1.98 0-.733-.04-1.353-.12-1.86-.08-.52-.247-.913-.5-1.18-.254-.28-.654-.42-1.2-.42a1.6 1.6 0 0 0-1.12.42 2.494 2.494 0 0 0-.68.92h-1.82V91.8h6.98v2.14h-5.04l-.14 4.48c.266-.28.593-.5.98-.66.4-.16.853-.24 1.36-.24.88 0 1.566.207 2.06.62.506.413.86.98 1.06 1.7.213.72.32 1.547.32 2.48 0 .827-.06 1.6-.18 2.32-.12.707-.334 1.327-.64 1.86-.294.52-.7.927-1.22 1.22-.52.293-1.18.44-1.98.44Zm10.432-.16 4.46-16.22h1.84l-4.44 16.22h-1.86Zm-1.92-7.6c-1.107 0-1.907-.34-2.4-1.02-.494-.68-.74-1.593-.74-2.74v-1.26c0-1.187.24-2.1.72-2.74.48-.64 1.286-.96 2.42-.96 1.133 0 1.94.307 2.42.92s.72 1.507.72 2.68v1.42c0 1.16-.247 2.067-.74 2.72-.48.653-1.28.98-2.4.98Zm0-1.62c.346 0 .6-.093.76-.28.173-.2.286-.46.34-.78.066-.32.1-.66.1-1.02v-1.42c0-.547-.074-1.013-.22-1.4-.134-.387-.46-.58-.98-.58s-.847.2-.98.6c-.134.387-.2.853-.2 1.4v1.42c0 .36.026.7.08 1.02.066.307.18.56.34.76.173.187.426.28.76.28Zm10.1 9.32c-1.107 0-1.907-.333-2.4-1-.48-.68-.72-1.6-.72-2.76v-1.26c0-1.173.233-2.08.7-2.72.48-.653 1.286-.98 2.42-.98 1.146 0 1.953.313 2.42.94.48.613.72 1.507.72 2.68v1.4c0 1.173-.247 2.087-.74 2.74-.48.64-1.28.96-2.4.96Zm0-1.62c.346 0 .606-.093.78-.28.173-.2.286-.46.34-.78.053-.32.08-.653.08-1v-1.44c0-.547-.074-1.013-.22-1.4-.134-.387-.46-.58-.98-.58s-.847.2-.98.6c-.134.387-.2.853-.2 1.4v1.42c0 .36.026.7.08 1.02.066.307.18.56.34.76.173.187.426.28.76.28ZM11.26 108V91.8h6.28v1.68h-4.02v5.36h3.26v1.6h-3.26v5.94h4.06V108h-6.32Zm8.144 0V91.8h3.52c1.2 0 2.147.187 2.84.56a3.06 3.06 0 0 1 1.5 1.64c.307.733.46 1.647.46 2.74v5.96c0 1.147-.153 2.113-.46 2.9-.293.787-.78 1.387-1.46 1.8-.666.4-1.566.6-2.7.6h-3.7Zm2.26-1.62h1.28c.827 0 1.414-.16 1.76-.48.347-.32.554-.787.62-1.4.08-.613.12-1.353.12-2.22v-5.26c0-.84-.053-1.52-.16-2.04-.106-.52-.34-.9-.7-1.14-.36-.24-.926-.36-1.7-.36h-1.22v12.9Zm12.467 1.8c-1.173 0-2.073-.233-2.7-.7-.626-.467-1.053-1.12-1.28-1.96-.226-.853-.34-1.847-.34-2.98V91.8h2.16v10.84c0 .693.047 1.327.14 1.9.094.573.294 1.027.6 1.36.32.333.794.5 1.42.5.64 0 1.114-.167 1.42-.5.307-.333.507-.787.6-1.36.094-.573.14-1.207.14-1.9V91.8h2.14v10.74c0 1.133-.113 2.127-.34 2.98-.226.84-.653 1.493-1.28 1.96-.613.467-1.506.7-2.68.7Zm10.74 0c-1.147 0-2.04-.24-2.68-.72-.627-.48-1.067-1.127-1.32-1.94-.24-.813-.36-1.72-.36-2.72v-5.72c0-1.093.12-2.047.36-2.86.253-.813.693-1.44 1.32-1.88.64-.453 1.533-.68 2.68-.68 1.013 0 1.813.187 2.4.56.6.373 1.026.907 1.28 1.6.266.693.4 1.527.4 2.5v1.28h-2.14v-1.14c0-.6-.034-1.127-.1-1.58-.054-.467-.214-.827-.48-1.08-.267-.253-.714-.38-1.34-.38-.64 0-1.107.14-1.4.42-.294.267-.487.653-.58 1.16-.08.493-.12 1.073-.12 1.74v6.42c0 .813.066 1.46.2 1.94.133.467.353.8.66 1 .306.2.72.3 1.24.3.613 0 1.053-.133 1.32-.4.266-.28.433-.66.5-1.14.066-.48.1-1.04.1-1.68v-1.2h2.14v1.2c0 .987-.12 1.86-.36 2.62-.24.747-.654 1.333-1.24 1.76-.587.413-1.414.62-2.48.62Zm5.353-.18 3.44-16.2h2.18l3.46 16.2h-2.14l-.74-4.08h-3.3l-.78 4.08h-2.12Zm3.2-5.7h2.7l-1.36-7.3-1.34 7.3Zm8.659 5.7V93.48h-2.74V91.8h7.66v1.68h-2.66V108h-2.26Zm6.602 0V91.8h2.22V108h-2.22Zm8.98.18c-1.093 0-1.966-.213-2.62-.64-.653-.427-1.12-1.033-1.4-1.82-.28-.8-.42-1.733-.42-2.8v-6.14c0-1.067.14-1.98.42-2.74.294-.773.76-1.36 1.4-1.76.654-.413 1.527-.62 2.62-.62 1.094 0 1.96.207 2.6.62.64.413 1.1 1 1.38 1.76.294.76.44 1.673.44 2.74v6.16c0 1.053-.146 1.973-.44 2.76-.28.787-.74 1.4-1.38 1.84-.64.427-1.506.64-2.6.64Zm0-1.78c.6 0 1.054-.12 1.36-.36.307-.253.514-.6.62-1.04.107-.453.16-.98.16-1.58v-7.1c0-.6-.053-1.113-.16-1.54-.106-.44-.313-.773-.62-1-.306-.24-.76-.36-1.36-.36-.6 0-1.06.12-1.38.36-.306.227-.513.56-.62 1-.106.427-.16.94-.16 1.54v7.1c0 .6.054 1.127.16 1.58.107.44.314.787.62 1.04.32.24.78.36 1.38.36Zm6.642 1.6V91.8h1.54l4.6 10.76V91.8h1.88V108h-1.44l-4.66-11.06V108h-1.92Z" fill="#000"/><path d="M0 200a2 2 0 0 1 2-2h536a2 2 0 1 1 0 4H2a2 2 0 0 1-2-2Z" fill="#EBEBEB"/><path d="M0 200a2 2 0 0 1 2-2h385a2 2 0 1 1 0 4H2a2 2 0 0 1-2-2Z" fill="#FF8E32"/><path d="m496.782 182 2.92-14.52h-4.34v-1.68h6.48v1.04l-3 15.16h-2.06Zm6.675 0v-1.52l4.12-6.42c.306-.48.586-.927.84-1.34.266-.413.48-.847.64-1.3.173-.467.26-1 .26-1.6 0-.747-.12-1.333-.36-1.76-.24-.427-.66-.64-1.26-.64-.507 0-.9.14-1.18.42-.28.28-.474.647-.58 1.1-.107.453-.16.94-.16 1.46v.54h-2.14v-.56c0-.973.126-1.807.38-2.5.266-.707.686-1.253 1.26-1.64.586-.387 1.36-.58 2.32-.58 1.306 0 2.28.373 2.92 1.12.64.733.96 1.753.96 3.06 0 .693-.087 1.3-.26 1.82a6.855 6.855 0 0 1-.64 1.46c-.267.453-.56.92-.88 1.4l-3.72 5.68h5.12v1.8h-7.64Zm14.511 0 4.46-16.22h1.84l-4.44 16.22h-1.86Zm-1.92-7.6c-1.107 0-1.907-.34-2.4-1.02-.494-.68-.74-1.593-.74-2.74v-1.26c0-1.187.24-2.1.72-2.74.48-.64 1.286-.96 2.42-.96 1.133 0 1.94.307 2.42.92s.72 1.507.72 2.68v1.42c0 1.16-.247 2.067-.74 2.72-.48.653-1.28.98-2.4.98Zm0-1.62c.346 0 .6-.093.76-.28.173-.2.286-.46.34-.78.066-.32.1-.66.1-1.02v-1.42c0-.547-.074-1.013-.22-1.4-.134-.387-.46-.58-.98-.58s-.847.2-.98.6c-.134.387-.2.853-.2 1.4v1.42c0 .36.026.7.08 1.02.066.307.18.56.34.76.173.187.426.28.76.28Zm10.1 9.32c-1.107 0-1.907-.333-2.4-1-.48-.68-.72-1.6-.72-2.76v-1.26c0-1.173.233-2.08.7-2.72.48-.653 1.286-.98 2.42-.98 1.146 0 1.953.313 2.42.94.48.613.72 1.507.72 2.68v1.4c0 1.173-.247 2.087-.74 2.74-.48.64-1.28.96-2.4.96Zm0-1.62c.346 0 .606-.093.78-.28.173-.2.286-.46.34-.78.053-.32.08-.653.08-1v-1.44c0-.547-.074-1.013-.22-1.4-.134-.387-.46-.58-.98-.58s-.847.2-.98.6c-.134.387-.2.853-.2 1.4v1.42c0 .36.026.7.08 1.02.066.307.18.56.34.76.173.187.426.28.76.28ZM15.08 182.18c-.933 0-1.713-.2-2.34-.6a3.802 3.802 0 0 1-1.4-1.66c-.32-.707-.507-1.527-.56-2.46l2-.54c.04.573.127 1.127.26 1.66.147.533.38.973.7 1.32.32.333.767.5 1.34.5.587 0 1.027-.16 1.32-.48.307-.333.46-.807.46-1.42 0-.733-.167-1.32-.5-1.76a9.01 9.01 0 0 0-1.26-1.36l-2.72-2.4c-.533-.467-.927-.973-1.18-1.52-.253-.56-.38-1.247-.38-2.06 0-1.187.34-2.107 1.02-2.76.68-.653 1.607-.98 2.78-.98.64 0 1.2.087 1.68.26.493.16.9.413 1.22.76.333.347.593.787.78 1.32.2.52.333 1.133.4 1.84l-1.92.52a7.766 7.766 0 0 0-.24-1.46c-.12-.453-.333-.813-.64-1.08-.293-.28-.72-.42-1.28-.42s-1 .153-1.32.46c-.307.293-.46.733-.46 1.32 0 .493.08.9.24 1.22.173.32.447.647.82.98l2.74 2.4a8.456 8.456 0 0 1 1.62 1.92c.467.733.7 1.607.7 2.62 0 .8-.167 1.493-.5 2.08a3.378 3.378 0 0 1-1.38 1.32c-.573.307-1.24.46-2 .46Zm7.413-.18v-14.52h-2.74v-1.68h7.66v1.68h-2.66V182h-2.26Zm6.482 0v-16.2h3.26c1.08 0 1.973.147 2.68.44.706.28 1.227.74 1.56 1.38.346.627.52 1.453.52 2.48 0 .627-.067 1.2-.2 1.72-.134.507-.347.94-.64 1.3-.294.347-.68.6-1.16.76l2.3 8.12h-2.18l-2.12-7.6h-1.76v7.6h-2.26Zm2.26-9.22h.86c.64 0 1.16-.08 1.56-.24.4-.16.693-.433.88-.82.187-.387.28-.927.28-1.62 0-.947-.173-1.627-.52-2.04-.347-.427-1.034-.64-2.06-.64h-1v5.36Zm7.23 9.22 3.44-16.2h2.18l3.46 16.2h-2.14l-.74-4.08h-3.3l-.78 4.08h-2.12Zm3.2-5.7h2.7l-1.36-7.3-1.34 7.3Zm8.66 5.7v-14.52h-2.74v-1.68h7.66v1.68h-2.66V182h-2.26Zm6.482 0v-16.2h6.28v1.68h-4.02v5.36h3.26v1.6h-3.26v5.94h4.06V182h-6.32Zm12.004.2c-1.013 0-1.826-.213-2.44-.64-.6-.44-1.04-1.073-1.32-1.9-.266-.827-.4-1.82-.4-2.98v-5.42c0-1.187.12-2.193.36-3.02.254-.84.694-1.48 1.32-1.92.64-.44 1.527-.66 2.66-.66 1.014 0 1.827.173 2.44.52.627.333 1.08.853 1.36 1.56.28.693.42 1.573.42 2.64v.6h-2.12v-.5c0-.707-.046-1.28-.14-1.72-.093-.453-.286-.787-.58-1-.28-.227-.726-.34-1.34-.34-.666 0-1.153.153-1.46.46-.293.307-.48.727-.56 1.26-.066.52-.1 1.113-.1 1.78v6c0 .773.054 1.42.16 1.94.12.52.34.907.66 1.16.32.253.774.38 1.36.38.587 0 1.04-.14 1.36-.42.32-.28.54-.693.66-1.24s.18-1.227.18-2.04v-1.12h-2.06v-1.6h4.1V182h-1.42l-.22-1.86a3.402 3.402 0 0 1-1 1.48c-.453.387-1.08.58-1.88.58Zm9.206-.2v-5.72l-3.5-10.48h2.1l2.48 7.82 2.44-7.82h2.12l-3.48 10.48V182h-2.16Zm11.72 0v-16.2h3.52c1.2 0 2.146.187 2.84.56.706.36 1.206.907 1.5 1.64.306.733.46 1.647.46 2.74v5.96c0 1.147-.154 2.113-.46 2.9-.294.787-.78 1.387-1.46 1.8-.667.4-1.567.6-2.7.6h-3.7Zm2.26-1.62h1.28c.826 0 1.413-.16 1.76-.48.346-.32.553-.787.62-1.4.08-.613.12-1.353.12-2.22v-5.26c0-.84-.054-1.52-.16-2.04-.107-.52-.34-.9-.7-1.14-.36-.24-.927-.36-1.7-.36h-1.22v12.9Zm8.286 1.62v-16.2h6.28v1.68h-4.02v5.36h3.26v1.6h-3.26v5.94h4.06V182h-6.32Zm10.965 0-3.62-16.2h2.12l2.56 11.94 2.44-11.94h2.06l-3.58 16.2h-1.98Zm7.278 0v-16.2h6.28v1.68h-4.02v5.36h3.26v1.6h-3.26v5.94h4.06V182h-6.32Zm8.144 0v-16.2h2.26v14.58h4.14V182h-6.4Zm11.972.18c-1.093 0-1.966-.213-2.62-.64-.653-.427-1.12-1.033-1.4-1.82-.28-.8-.42-1.733-.42-2.8v-6.14c0-1.067.14-1.98.42-2.74.294-.773.76-1.36 1.4-1.76.654-.413 1.527-.62 2.62-.62 1.094 0 1.96.207 2.6.62.64.413 1.1 1 1.38 1.76.294.76.44 1.673.44 2.74v6.16c0 1.053-.146 1.973-.44 2.76-.28.787-.74 1.4-1.38 1.84-.64.427-1.506.64-2.6.64Zm0-1.78c.6 0 1.054-.12 1.36-.36.307-.253.514-.6.62-1.04.107-.453.16-.98.16-1.58v-7.1c0-.6-.053-1.113-.16-1.54-.106-.44-.313-.773-.62-1-.306-.24-.76-.36-1.36-.36-.6 0-1.06.12-1.38.36-.306.227-.513.56-.62 1-.106.427-.16.94-.16 1.54v7.1c0 .6.054 1.127.16 1.58.107.44.314.787.62 1.04.32.24.78.36 1.38.36Zm6.641 1.6v-16.2h4.02c.974 0 1.747.18 2.32.54.587.347 1.014.853 1.28 1.52.267.667.4 1.473.4 2.42 0 .853-.153 1.593-.46 2.22a3.258 3.258 0 0 1-1.32 1.46c-.586.333-1.32.5-2.2.5h-1.78V182h-2.26Zm2.26-9.16h1.04c.654 0 1.167-.073 1.54-.22.374-.147.64-.4.8-.76.16-.373.24-.893.24-1.56 0-.773-.06-1.367-.18-1.78-.106-.413-.34-.7-.7-.86-.36-.16-.92-.24-1.68-.24h-1.06v5.42Zm7.31 9.16.3-16.2h2.22l2.86 13.14 2.88-13.14h2.2l.3 16.2h-1.82l-.18-11.76-2.74 11.76h-1.28l-2.72-11.76-.18 11.76h-1.84Zm13.243 0v-16.2h6.28v1.68h-4.02v5.36h3.26v1.6h-3.26v5.94h4.06V182h-6.32Zm8.144 0v-16.2h1.54l4.6 10.76V165.8h1.88V182h-1.44l-4.66-11.06V182h-1.92Zm12.347 0v-14.52h-2.74v-1.68h7.66v1.68h-2.66V182h-2.26Z" fill="#000"/></svg>